HIERARCHY
ROOT Hips
{
	OFFSET 0.00000 0.00000 0.00000
	CHANNELS 6 Xposition Yposition Zposition Zrotation Yrotation Xrotation 
	JOINT LHipJoint
	{
		OFFSET 0 0 0
		CHANNELS 3 Zrotation Yrotation Xrotation
		JOINT LeftUpLeg
		{
			OFFSET 1.58895 -1.83665 0.71753
			CHANNELS 3 Zrotation Yrotation Xrotation
			JOINT LeftLeg
			{
				OFFSET 2.50528 -6.88321 0.00000
				CHANNELS 3 Zrotation Yrotation Xrotation
				JOINT LeftFoot
				{
					OFFSET 2.63244 -7.23257 0.00000
					CHANNELS 3 Zrotation Yrotation Xrotation
					JOINT LeftToeBase
					{
						OFFSET 0.23691 -0.65090 1.72750
						CHANNELS 3 Zrotation Yrotation Xrotation
						End Site
						{
							OFFSET 0.00000 -0.00000 0.92561
						}
					}
				}
			}
		}
	}
	JOINT RHipJoint
	{
		OFFSET 0 0 0
		CHANNELS 3 Zrotation Yrotation Xrotation
		JOINT RightUpLeg
		{
			OFFSET -1.51435 -1.83665 0.71753
			CHANNELS 3 Zrotation Yrotation Xrotation
			JOINT RightLeg
			{
				OFFSET -2.54551 -6.99375 0.00000
				CHANNELS 3 Zrotation Yrotation Xrotation
				JOINT RightFoot
				{
					OFFSET -2.66027 -7.30903 0.00000
					CHANNELS 3 Zrotation Yrotation Xrotation
					JOINT RightToeBase
					{
						OFFSET -0.22981 -0.63138 2.03959
						CHANNELS 3 Zrotation Yrotation Xrotation
						End Site
						{
							OFFSET -0.00000 -0.00000 1.07060
						}
					}
				}
			}
		}
	}
	JOINT LowerBack
	{
		OFFSET 0 0 0
		CHANNELS 3 Zrotation Yrotation Xrotation
		JOINT Spine
		{
			OFFSET -0.02651 1.86275 -0.11152
			CHANNELS 3 Zrotation Yrotation Xrotation
			JOINT Spine1
			{
				OFFSET 0.01019 1.86224 0.04087
				CHANNELS 3 Zrotation Yrotation Xrotation
				JOINT Neck
				{
					OFFSET 0 0 0
					CHANNELS 3 Zrotation Yrotation Xrotation
					JOINT Neck1
					{
						OFFSET -0.01926 1.80512 0.08867
						CHANNELS 3 Zrotation Yrotation Xrotation
						JOINT Head
						{
							OFFSET 0.05516 1.76451 -0.38475
							CHANNELS 3 Zrotation Yrotation Xrotation
							End Site
							{
								OFFSET 0.01592 1.82587 -0.14001
							}
						}
					}
				}
				JOINT LeftShoulder
				{
					OFFSET 0 0 0
					CHANNELS 3 Zrotation Yrotation Xrotation
					JOINT LeftArm
					{
						OFFSET 3.47116 1.51376 0.14491
						CHANNELS 3 Zrotation Yrotation Xrotation
						JOINT LeftForeArm
						{
							OFFSET 4.78095 -0.00000 0.00000
							CHANNELS 3 Zrotation Yrotation Xrotation
							JOINT LeftHand
							{
								OFFSET 3.58615 -0.00000 -0.00000
								CHANNELS 3 Zrotation Yrotation Xrotation
								JOINT LeftFingerBase
								{
									OFFSET 0 0 0
									CHANNELS 3 Zrotation Yrotation Xrotation
									JOINT LeftHandIndex1
									{
										OFFSET 0.65981 -0.00000 0.00000
										CHANNELS 3 Zrotation Yrotation Xrotation
										End Site
										{
											OFFSET 0.53196 -0.00000 0.00000
										}
									}
								}
								JOINT LThumb
								{
									OFFSET 0 0 0
									CHANNELS 3 Zrotation Yrotation Xrotation
									End Site
									{
										OFFSET 0.54008 -0.00000 0.54008
									}
								}
							}
						}
					}
				}
				JOINT RightShoulder
				{
					OFFSET 0 0 0
					CHANNELS 3 Zrotation Yrotation Xrotation
					JOINT RightArm
					{
						OFFSET -3.31725 1.61216 0.35156
						CHANNELS 3 Zrotation Yrotation Xrotation
						JOINT RightForeArm
						{
							OFFSET -4.48913 -0.00000 0.00000
							CHANNELS 3 Zrotation Yrotation Xrotation
							JOINT RightHand
							{
								OFFSET -3.70510 -0.00000 0.00000
								CHANNELS 3 Zrotation Yrotation Xrotation
								JOINT RightFingerBase
								{
									OFFSET 0 0 0
									CHANNELS 3 Zrotation Yrotation Xrotation
									JOINT RightHandIndex1
									{
										OFFSET -0.44914 -0.00000 0.00000
										CHANNELS 3 Zrotation Yrotation Xrotation
										End Site
										{
											OFFSET -0.36211 -0.00000 0.00000
										}
									}
								}
								JOINT RThumb
								{
									OFFSET 0 0 0
									CHANNELS 3 Zrotation Yrotation Xrotation
									End Site
									{
										OFFSET -0.36763 -0.00000 0.36763
									}
								}
							}
						}
					}
				}
			}
		}
	}
}
MOTION
Frames: 13
Frame Time: .0083333
-0.9413 18.2073 5.4094 -5.3804 -10.6779 0.8553 0.0000 0.0000 0.0000 -11.1399 3.1712 17.6629 0.9112 -6.0827 -17.0246 -1.6453 22.7123 -14.9037 0.1240 -2.2697 -6.2515 0.0000 0.0000 0.0000 0.0000 0.0000 0.0000 0.0000 0.0000 0.0000 -0.0000 -0.0000 0.0000 -0.0000 -0.0000 0.0000 1.2144 -2.3740 9.6104 0.4542 -3.0298 2.8795 0.1373 -1.5137 -2.4290 4.9637 1.8255 -0.6820 3.4382 1.7561 13.0607 0.3554 1.2343 4.4523 -0.0000 -0.0000 0.0000 -79.4631 20.1104 49.8042 85.0894 -59.9087 -55.7486 -0.0000 0.0000 -21.1908 9.4880 -13.6695 -2.2618 -7.1250 0.0000 -0.0000 -12.2512 16.3269 8.5119 -0.0000 -0.0000 0.0000 41.6871 22.2441 26.1890 -158.9886 31.8417 -113.9440 0.0000 -0.0000 -48.9855 14.0399 -44.4510 -9.9330 7.1250 -0.0000 -0.0000 64.1786 -63.1477 -35.1003
-0.9426 18.2082 5.4131 -5.3529 -10.7843 0.9090 0.0000 0.0000 0.0000 -11.1805 3.1683 17.6003 0.9028 -6.0552 -16.9448 -1.6440 22.7349 -15.0425 0.1095 -2.1340 -5.8762 0.0000 0.0000 0.0000 0.0000 0.0000 0.0000 0.0000 0.0000 0.0000 -0.0000 -0.0000 0.0000 -0.0000 -0.0000 0.0000 1.2551 -2.3105 9.4787 0.4483 -2.9451 2.9372 0.0913 -1.4714 -2.2984 4.8570 1.7401 -0.8014 3.3518 1.6570 12.9095 0.3400 1.1746 4.4184 0.0000 -0.0000 0.0000 -79.3752 19.8916 50.0342 84.9425 -59.9031 -55.6215 -0.0000 0.0000 -21.1648 9.2418 -13.6230 -2.1948 -7.1250 0.0000 -0.0000 -12.4199 16.3870 8.6184 0.0000 -0.0000 0.0000 41.4901 22.2539 26.0188 -159.4110 31.3454 -114.1653 0.0000 -0.0000 -48.7818 18.4438 -43.4501 -12.9179 7.1250 -0.0000 -0.0000 66.0970 -61.4056 -34.0987
-0.9423 18.2094 5.4181 -5.3513 -10.7542 0.9659 0.0000 0.0000 0.0000 -11.1979 3.0723 17.5447 0.8975 -6.0379 -16.8945 -1.6422 22.7455 -15.1370 0.0945 -1.9828 -5.4580 0.0000 0.0000 0.0000 0.0000 0.0000 0.0000 0.0000 0.0000 0.0000 -0.0000 -0.0000 0.0000 -0.0000 -0.0000 0.0000 1.3701 -2.2774 9.3772 0.4289 -2.8929 2.9326 -0.0031 -1.4453 -2.2533 4.8228 1.7190 -0.7986 3.2499 1.6454 12.8626 0.3105 1.1619 4.4007 -0.0000 0.0000 0.0000 -79.1875 19.7040 50.4110 84.8556 -59.8998 -55.5463 -0.0000 0.0000 -21.1652 9.1506 -13.6242 -2.1729 -7.1250 0.0000 -0.0000 -12.4817 16.3911 8.6623 -0.0000 0.0000 0.0000 41.6006 22.0824 25.2586 -159.6904 31.0136 -114.3100 0.0000 -0.0000 -49.1967 16.7269 -43.9240 -11.7762 7.1250 -0.0000 -0.0000 65.4714 -62.1202 -34.6557
-0.9424 18.2098 5.4239 -5.3634 -10.6683 0.9821 0.0000 0.0000 0.0000 -11.1980 2.9566 17.5519 0.8970 -6.0362 -16.8896 -1.6472 22.7758 -15.1494 0.0962 -2.0002 -5.5062 0.0000 0.0000 0.0000 0.0000 0.0000 0.0000 0.0000 0.0000 0.0000 -0.0000 -0.0000 0.0000 -0.0000 -0.0000 0.0000 1.4496 -2.2685 9.3363 0.4393 -2.8736 2.8853 -0.0394 -1.4359 -2.2829 4.8161 1.7534 -0.6225 3.1552 1.7133 12.8893 0.2810 1.1899 4.3769 -0.0000 -0.0000 0.0000 -79.0221 19.6413 50.7859 84.9779 -59.9045 -55.6521 -0.0000 0.0000 -21.1368 9.1368 -13.6415 -2.1723 -7.1250 0.0000 -0.0000 -12.4904 16.3749 8.6731 -0.0000 -0.0000 0.0000 41.9202 21.8285 24.0377 -159.7319 30.9640 -114.3314 0.0000 -0.0000 -49.8116 15.7045 -44.1219 -11.0755 7.1250 -0.0000 -0.0000 64.9730 -62.5071 -34.8206
-0.9419 18.2107 5.4279 -5.3614 -10.5291 1.0142 0.0000 0.0000 0.0000 -11.2028 2.8421 17.5391 0.9000 -6.0460 -16.9179 -1.6482 22.7681 -15.0901 0.1019 -2.0582 -5.6666 0.0000 0.0000 0.0000 0.0000 0.0000 0.0000 0.0000 0.0000 0.0000 -0.0000 -0.0000 0.0000 -0.0000 -0.0000 0.0000 1.4987 -2.3019 9.2710 0.4560 -2.9135 2.8294 -0.0465 -1.4560 -2.3068 4.8732 1.8327 -0.4558 3.0343 1.8356 13.0248 0.2352 1.2490 4.3968 -0.0000 0.0000 0.0000 -78.9370 19.6684 51.0178 85.2699 -59.9153 -55.9048 -0.0000 0.0000 -21.0931 9.1667 -13.6121 -2.1749 -7.1250 0.0000 -0.0000 -12.4712 16.4022 8.6515 -0.0000 0.0000 0.0000 42.4114 21.6987 22.8394 -159.4679 31.2781 -114.1949 0.0000 -0.0000 -50.1744 13.9934 -44.3755 -9.8864 7.1250 -0.0000 -0.0000 64.0181 -63.1216 -34.9391
-0.9419 18.2115 5.4314 -5.3910 -10.4372 1.0636 0.0000 0.0000 0.0000 -11.1616 2.7984 17.5133 0.9034 -6.0572 -16.9506 -1.6386 22.7125 -15.0749 0.0939 -1.9760 -5.4393 0.0000 0.0000 0.0000 0.0000 0.0000 0.0000 0.0000 0.0000 0.0000 -0.0000 -0.0000 0.0000 -0.0000 -0.0000 0.0000 1.5549 -2.3626 9.1993 0.4720 -2.9890 2.7698 -0.0544 -1.4939 -2.3320 4.9134 1.9150 -0.3913 2.9799 1.9458 13.2210 0.2161 1.3064 4.4587 0.0000 -0.0000 0.0000 -78.9669 19.7750 50.9987 85.5312 -59.9244 -56.1309 -0.0000 0.0000 -21.0500 9.3166 -13.6488 -2.2169 -7.1250 0.0000 -0.0000 -12.3682 16.3573 8.5889 0.0000 -0.0000 0.0000 43.1076 21.7606 22.3025 -158.9261 31.9145 -113.9111 0.0000 -0.0000 -49.8324 11.7799 -44.4725 -8.3121 7.1250 -0.0000 -0.0000 62.3975 -63.8073 -34.6199
-0.9439 18.2102 5.4347 -5.4392 -10.4593 1.0419 0.0000 0.0000 0.0000 -11.0907 2.8843 17.5543 0.9057 -6.0647 -16.9724 -1.6328 22.6724 -15.0366 0.0936 -1.9727 -5.4303 0.0000 0.0000 0.0000 0.0000 0.0000 0.0000 0.0000 0.0000 0.0000 -0.0000 -0.0000 0.0000 -0.0000 -0.0000 0.0000 1.5959 -2.4443 9.1103 0.4493 -3.0968 2.7887 -0.0931 -1.5473 -2.2682 4.9695 2.0045 -0.3407 3.0022 2.0598 13.2995 0.2189 1.3671 4.4797 0.0000 -0.0000 0.0000 -79.0601 19.9074 50.6842 85.7176 -59.9306 -56.2922 -0.0000 0.0000 -21.0381 9.5245 -13.7184 -2.2786 -7.1250 0.0000 -0.0000 -12.2246 16.2764 8.5064 0.0000 -0.0000 0.0000 43.8408 22.0525 22.6794 -158.3036 32.6322 -113.5787 0.0000 -0.0000 -48.6611 10.6072 -44.2882 -7.4502 7.1250 -0.0000 -0.0000 61.1331 -64.0474 -33.9723
-0.9476 18.2074 5.4369 -5.4382 -10.5357 0.9483 0.0000 0.0000 0.0000 -11.0682 3.0425 17.6453 0.9064 -6.0671 -16.9791 -1.6314 22.6491 -14.9637 0.1079 -2.1182 -5.8325 0.0000 0.0000 0.0000 0.0000 0.0000 0.0000 0.0000 0.0000 0.0000 -0.0000 -0.0000 0.0000 -0.0000 -0.0000 0.0000 1.5047 -2.5102 9.1611 0.4297 -3.1918 2.7814 -0.0492 -1.5946 -2.3014 5.0589 2.0476 -0.3076 2.9951 2.1128 13.3605 0.2036 1.3978 4.4981 -0.0000 0.0000 0.0000 -79.2112 20.1644 50.2879 85.8759 -59.9356 -56.4292 -0.0000 0.0000 -21.0961 9.6022 -13.7198 -2.2977 -7.1250 0.0000 -0.0000 -12.1719 16.2705 8.4695 -0.0000 0.0000 0.0000 44.2323 22.2498 23.8144 -157.9054 33.0838 -113.3626 0.0000 -0.0000 -47.4870 10.8850 -43.9433 -7.6009 7.1250 -0.0000 -0.0000 60.7865 -63.7785 -33.3564
-0.9517 18.2042 5.4391 -5.4069 -10.6437 0.8495 0.0000 0.0000 0.0000 -11.0819 3.1842 17.7438 0.9054 -6.0638 -16.9695 -1.6282 22.6356 -14.9835 0.1140 -2.1770 -5.9950 0.0000 0.0000 0.0000 0.0000 0.0000 0.0000 0.0000 0.0000 0.0000 -0.0000 -0.0000 0.0000 -0.0000 -0.0000 0.0000 1.3628 -2.5183 9.2400 0.4181 -3.2144 2.7891 0.0240 -1.6058 -2.3302 5.1015 2.0152 -0.3888 3.0400 2.0551 13.3775 0.2101 1.3745 4.5203 -0.0000 -0.0000 0.0000 -79.3442 20.3279 49.9764 85.8656 -59.9353 -56.4203 -0.0000 0.0000 -21.1763 9.5663 -13.7348 -2.2914 -7.1250 0.0000 -0.0000 -12.1957 16.2578 8.4903 -0.0000 -0.0000 0.0000 44.2078 22.2176 25.2425 -157.9261 33.0605 -113.3739 0.0000 -0.0000 -47.0775 12.0776 -43.5974 -8.3936 7.1250 -0.0000 -0.0000 61.2031 -63.2484 -32.9638
-0.9561 18.2031 5.4413 -5.3721 -10.7152 0.8140 0.0000 0.0000 0.0000 -11.0999 3.2986 17.7619 0.9039 -6.0589 -16.9555 -1.6233 22.6092 -14.9844 0.1156 -2.1920 -6.0365 0.0000 0.0000 0.0000 0.0000 0.0000 0.0000 0.0000 0.0000 0.0000 -0.0000 -0.0000 0.0000 -0.0000 -0.0000 0.0000 1.3524 -2.4801 9.5359 0.3442 -3.1588 2.6184 -0.0340 -1.5789 -2.6732 5.1852 1.8976 -0.3301 3.1300 1.8865 13.3608 0.2181 1.2987 4.5012 -0.0000 0.0000 0.0000 -79.2749 20.6449 49.9288 85.8469 -59.9347 -56.4041 -0.0000 0.0000 -21.1797 9.4537 -13.7564 -2.2675 -7.1250 0.0000 -0.0000 -12.2713 16.2430 8.5495 -0.0000 0.0000 0.0000 44.1707 21.6797 26.7146 -158.3199 32.6137 -113.5874 0.0000 -0.0000 -47.1037 13.7204 -43.2864 -9.5033 7.1250 -0.0000 -0.0000 62.0545 -62.6172 -32.7431
-0.9601 18.2040 5.4434 -5.3601 -10.7008 0.8443 0.0000 0.0000 0.0000 -11.0959 3.3524 17.7157 0.9047 -6.0613 -16.9625 -1.6206 22.5761 -14.8994 0.1247 -2.2766 -6.2708 0.0000 0.0000 0.0000 0.0000 0.0000 0.0000 0.0000 0.0000 0.0000 -0.0000 -0.0000 0.0000 -0.0000 -0.0000 0.0000 1.1764 -2.4527 9.1717 0.3916 -3.1473 2.8752 0.0875 -1.5720 -2.1943 5.1351 1.8364 -0.6029 3.0897 1.8082 13.0533 0.2091 1.2515 4.4406 0.0000 0.0000 0.0000 -79.4132 20.2242 49.7452 85.7305 -59.9310 -56.3034 -0.0000 0.0000 -21.1563 9.3302 -13.6841 -2.2258 -7.1250 0.0000 -0.0000 -12.3577 16.3217 8.5910 0.0000 0.0000 0.0000 43.9268 21.6669 27.2784 -158.7516 32.1172 -113.8185 0.0000 -0.0000 -47.0690 14.6857 -42.8581 -10.1075 7.1250 -0.0000 -0.0000 62.1794 -62.1163 -32.1420
-0.9621 18.2049 5.4462 -5.4038 -10.6020 0.9161 0.0000 0.0000 0.0000 -11.0479 3.2343 17.6896 0.9088 -6.0747 -17.0013 -1.6242 22.5923 -14.8842 0.1234 -2.2643 -6.2367 0.0000 0.0000 0.0000 0.0000 0.0000 0.0000 0.0000 0.0000 0.0000 -0.0000 -0.0000 0.0000 -0.0000 -0.0000 0.0000 1.2344 -2.4048 9.1376 0.4074 -3.0786 2.8659 0.0625 -1.5378 -2.1867 5.0487 1.7399 -0.7168 3.0410 1.6880 12.9235 0.2024 1.1846 4.4129 -0.0000 0.0000 0.0000 -79.3633 20.0926 49.9068 85.6658 -59.9289 -56.2474 -0.0000 0.0000 -21.1758 9.2381 -13.5749 -2.1863 -7.1250 0.0000 -0.0000 -12.4242 16.4348 8.6083 -0.0000 0.0000 0.0000 44.1200 21.1761 27.3570 -159.2083 31.5844 -114.0595 0.0000 -0.0000 -47.2455 14.0612 -42.7405 -9.6471 7.1250 -0.0000 -0.0000 61.4883 -62.2224 -31.7790
-0.9627 18.2059 5.4495 -5.4955 -10.4031 0.9882 0.0000 0.0000 0.0000 -10.9491 3.0501 17.6746 0.9149 -6.0944 -17.0586 -1.6282 22.6053 -14.8402 0.1213 -2.2453 -6.1842 0.0000 0.0000 0.0000 0.0000 0.0000 0.0000 0.0000 0.0000 0.0000 -0.0000 -0.0000 0.0000 -0.0000 -0.0000 0.0000 1.3425 -2.3917 9.1175 0.4583 -3.0499 2.8373 0.0514 -1.5236 -2.2077 4.7994 1.6702 -0.8489 2.9818 1.6089 12.8808 0.2235 1.1322 4.4188 0.0000 -0.0000 0.0000 -79.3097 19.9388 50.1297 85.5388 -59.9247 -56.1374 -0.0000 0.0000 -21.2302 9.2219 -13.6120 -2.1882 -7.1250 0.0000 -0.0000 -12.4338 16.3990 8.6252 0.0000 -0.0000 0.0000 44.7232 20.6983 26.7419 -159.2675 31.5148 -114.0905 0.0000 -0.0000 -46.7633 14.3374 -41.5306 -9.6181 7.1250 -0.0000 -0.0000 59.9121 -61.4622 -29.5955
